<?xml version="1.0" encoding="UTF-8" standalone="no"?>
<!DOCTYPE svg PUBLIC "-//W3C//DTD SVG 1.1//EN" "http://www.w3.org/Graphics/SVG/1.1/DTD/svg11.dtd">
<svg width="100%" height="100%" viewBox="0 0 674 148" version="1.1" xmlns="http://www.w3.org/2000/svg" xmlns:xlink="http://www.w3.org/1999/xlink" xml:space="preserve" xmlns:serif="http://www.serif.com/" style="fill-rule:evenodd;clip-rule:evenodd;stroke-linejoin:round;stroke-miterlimit:2;">
    <g transform="matrix(1,0,0,1,-98.273,-189.906)">
        <g transform="matrix(0.718523,0,0,0.718523,-17.0397,223.613)">
            <g transform="matrix(177.298,0,0,177.298,143.504,153.049)">
                <path d="M0.095,-0.736L0.24,-0.736L0.24,-0.14L0.586,-0.14L0.586,0L0.095,0L0.095,-0.736Z" style="fill-rule:nonzero;"/>
            </g>
            <g transform="matrix(177.298,0,0,177.298,257.152,153.049)">
                <path d="M0.012,0L0.344,-0.765L0.352,-0.765L0.684,0L0.516,0L0.304,-0.538L0.409,-0.61L0.155,0L0.012,0ZM0.239,-0.266L0.46,-0.266L0.511,-0.144L0.194,-0.144L0.239,-0.266Z" style="fill-rule:nonzero;"/>
            </g>
            <g transform="matrix(177.298,0,0,177.298,380.552,153.049)">
                <path d="M0.095,0L0.095,-0.766L0.096,-0.766L0.505,-0.186L0.443,-0.2L0.851,-0.766L0.853,-0.766L0.853,0L0.708,0L0.708,-0.439L0.717,-0.364L0.468,-0.01L0.466,-0.01L0.21,-0.364L0.235,-0.433L0.235,0L0.095,0Z" style="fill-rule:nonzero;"/>
            </g>
            <g transform="matrix(177.298,0,0,177.298,548.63,153.049)">
                <path d="M0.318,-0.736C0.379,-0.736 0.43,-0.726 0.472,-0.706C0.514,-0.685 0.546,-0.657 0.568,-0.62C0.59,-0.583 0.601,-0.539 0.601,-0.488C0.601,-0.458 0.596,-0.428 0.588,-0.398C0.579,-0.367 0.564,-0.34 0.545,-0.315C0.525,-0.29 0.499,-0.271 0.466,-0.256C0.433,-0.241 0.392,-0.233 0.344,-0.233L0.24,-0.233L0.24,0L0.095,0L0.095,-0.736L0.318,-0.736ZM0.343,-0.374C0.365,-0.374 0.383,-0.378 0.398,-0.386C0.413,-0.393 0.424,-0.403 0.433,-0.415C0.441,-0.426 0.447,-0.438 0.451,-0.451C0.454,-0.464 0.456,-0.475 0.456,-0.484C0.456,-0.491 0.455,-0.501 0.453,-0.514C0.45,-0.526 0.445,-0.538 0.438,-0.551C0.431,-0.564 0.42,-0.574 0.405,-0.583C0.39,-0.592 0.369,-0.596 0.344,-0.596L0.24,-0.596L0.24,-0.374L0.343,-0.374Z" style="fill-rule:nonzero;"/>
            </g>
            <g transform="matrix(177.298,0,0,177.298,661.391,153.049)">
                <path d="M0.05,-0.367C0.05,-0.418 0.06,-0.466 0.079,-0.511C0.098,-0.556 0.125,-0.596 0.16,-0.632C0.194,-0.667 0.234,-0.694 0.279,-0.714C0.324,-0.734 0.373,-0.744 0.425,-0.744C0.476,-0.744 0.525,-0.734 0.57,-0.714C0.615,-0.694 0.656,-0.667 0.691,-0.632C0.725,-0.596 0.753,-0.556 0.773,-0.511C0.792,-0.466 0.802,-0.418 0.802,-0.367C0.802,-0.315 0.792,-0.266 0.773,-0.221C0.753,-0.176 0.725,-0.136 0.691,-0.102C0.656,-0.067 0.615,-0.04 0.57,-0.021C0.525,-0.002 0.476,0.008 0.425,0.008C0.373,0.008 0.324,-0.002 0.279,-0.021C0.234,-0.04 0.194,-0.067 0.16,-0.102C0.125,-0.136 0.098,-0.176 0.079,-0.221C0.06,-0.266 0.05,-0.315 0.05,-0.367ZM0.2,-0.367C0.2,-0.334 0.206,-0.304 0.218,-0.276C0.229,-0.247 0.246,-0.222 0.267,-0.201C0.288,-0.179 0.312,-0.162 0.34,-0.15C0.367,-0.138 0.397,-0.132 0.43,-0.132C0.461,-0.132 0.491,-0.138 0.518,-0.15C0.545,-0.162 0.568,-0.179 0.588,-0.201C0.608,-0.222 0.624,-0.247 0.635,-0.276C0.646,-0.304 0.652,-0.334 0.652,-0.367C0.652,-0.4 0.646,-0.431 0.635,-0.46C0.623,-0.489 0.607,-0.514 0.587,-0.536C0.566,-0.557 0.542,-0.574 0.515,-0.586C0.488,-0.598 0.458,-0.604 0.426,-0.604C0.394,-0.604 0.364,-0.598 0.337,-0.586C0.31,-0.574 0.286,-0.557 0.265,-0.536C0.244,-0.514 0.228,-0.489 0.217,-0.46C0.206,-0.431 0.2,-0.4 0.2,-0.367Z" style="fill-rule:nonzero;"/>
            </g>
            <g transform="matrix(177.298,0,0,177.298,812.449,153.049)">
                <path d="M0.05,-0.367C0.05,-0.418 0.06,-0.466 0.079,-0.511C0.098,-0.556 0.125,-0.596 0.16,-0.632C0.194,-0.667 0.234,-0.694 0.279,-0.714C0.324,-0.734 0.373,-0.744 0.425,-0.744C0.476,-0.744 0.525,-0.734 0.57,-0.714C0.615,-0.694 0.656,-0.667 0.691,-0.632C0.725,-0.596 0.753,-0.556 0.773,-0.511C0.792,-0.466 0.802,-0.418 0.802,-0.367C0.802,-0.315 0.792,-0.266 0.773,-0.221C0.753,-0.176 0.725,-0.136 0.691,-0.102C0.656,-0.067 0.615,-0.04 0.57,-0.021C0.525,-0.002 0.476,0.008 0.425,0.008C0.373,0.008 0.324,-0.002 0.279,-0.021C0.234,-0.04 0.194,-0.067 0.16,-0.102C0.125,-0.136 0.098,-0.176 0.079,-0.221C0.06,-0.266 0.05,-0.315 0.05,-0.367ZM0.2,-0.367C0.2,-0.334 0.206,-0.304 0.218,-0.276C0.229,-0.247 0.246,-0.222 0.267,-0.201C0.288,-0.179 0.312,-0.162 0.34,-0.15C0.367,-0.138 0.397,-0.132 0.43,-0.132C0.461,-0.132 0.491,-0.138 0.518,-0.15C0.545,-0.162 0.568,-0.179 0.588,-0.201C0.608,-0.222 0.624,-0.247 0.635,-0.276C0.646,-0.304 0.652,-0.334 0.652,-0.367C0.652,-0.4 0.646,-0.431 0.635,-0.46C0.623,-0.489 0.607,-0.514 0.587,-0.536C0.566,-0.557 0.542,-0.574 0.515,-0.586C0.488,-0.598 0.458,-0.604 0.426,-0.604C0.394,-0.604 0.364,-0.598 0.337,-0.586C0.31,-0.574 0.286,-0.557 0.265,-0.536C0.244,-0.514 0.228,-0.489 0.217,-0.46C0.206,-0.431 0.2,-0.4 0.2,-0.367Z" style="fill-rule:nonzero;"/>
            </g>
            <g transform="matrix(177.298,0,0,177.298,963.507,153.049)">
                <path d="M0.754,0.03L0.196,-0.474L0.239,-0.45L0.242,0L0.095,0L0.095,-0.765L0.101,-0.765L0.647,-0.263L0.615,-0.277L0.612,-0.736L0.758,-0.736L0.758,0.03L0.754,0.03Z" style="fill-rule:nonzero;"/>
            </g>
        </g>
        <g transform="matrix(1.25921,0,0,1.25921,-27.7265,10.7486)">
            <g transform="matrix(35.488,0,0,35.488,98.1738,169)">
                <path d="M0.051,-0.723L0.531,-0.723L0.531,-0.63L0.337,-0.63L0.337,0L0.24,0L0.24,-0.63L0.051,-0.63L0.051,-0.723Z" style="fill-rule:nonzero;"/>
            </g>
            <g transform="matrix(35.488,0,0,35.488,147.218,169)">
                <path d="M0.676,-0.723L0.676,0L0.58,0L0.58,-0.317L0.201,-0.317L0.201,0L0.104,0L0.104,-0.723L0.201,-0.723L0.201,-0.409L0.58,-0.409L0.58,-0.723L0.676,-0.723Z" style="fill-rule:nonzero;"/>
            </g>
            <g transform="matrix(35.488,0,0,35.488,203.325,169)">
                <path d="M0.104,-0.723L0.574,-0.723L0.574,-0.63L0.201,-0.63L0.201,-0.41L0.534,-0.41L0.534,-0.317L0.201,-0.317L0.201,-0.093L0.588,-0.093L0.588,0L0.104,0L0.104,-0.723Z" style="fill-rule:nonzero;"/>
            </g>
            <g transform="matrix(35.488,0,0,35.488,294.529,169)">
                <path d="M0.676,-0.723L0.676,0L0.58,0L0.58,-0.317L0.201,-0.317L0.201,0L0.104,0L0.104,-0.723L0.201,-0.723L0.201,-0.409L0.58,-0.409L0.58,-0.723L0.676,-0.723Z" style="fill-rule:nonzero;"/>
            </g>
            <g transform="matrix(35.488,0,0,35.488,350.635,169)">
                <path d="M0.032,0L0.348,-0.753L0.354,-0.753L0.669,0L0.558,0L0.322,-0.601L0.391,-0.646L0.127,0L0.032,0ZM0.217,-0.274L0.486,-0.274L0.518,-0.19L0.189,-0.19L0.217,-0.274Z" style="fill-rule:nonzero;"/>
            </g>
            <g transform="matrix(35.488,0,0,35.488,403.938,169)">
                <path d="M0.296,-0.723C0.333,-0.723 0.367,-0.718 0.398,-0.709C0.429,-0.699 0.456,-0.685 0.479,-0.666C0.502,-0.647 0.52,-0.623 0.533,-0.596C0.546,-0.568 0.552,-0.536 0.552,-0.499C0.552,-0.47 0.548,-0.442 0.54,-0.415C0.531,-0.388 0.517,-0.363 0.498,-0.341C0.479,-0.318 0.454,-0.3 0.423,-0.287C0.392,-0.273 0.353,-0.266 0.308,-0.266L0.201,-0.266L0.201,0L0.104,0L0.104,-0.723L0.296,-0.723ZM0.306,-0.359C0.335,-0.359 0.359,-0.363 0.378,-0.372C0.397,-0.381 0.411,-0.392 0.422,-0.406C0.433,-0.419 0.44,-0.434 0.445,-0.45C0.45,-0.466 0.452,-0.481 0.452,-0.495C0.452,-0.51 0.45,-0.525 0.445,-0.541C0.44,-0.556 0.432,-0.571 0.421,-0.584C0.409,-0.597 0.395,-0.608 0.378,-0.617C0.36,-0.626 0.338,-0.63 0.313,-0.63L0.201,-0.63L0.201,-0.359L0.306,-0.359ZM0.425,-0.304L0.614,0L0.502,0L0.31,-0.301L0.425,-0.304Z" style="fill-rule:nonzero;"/>
            </g>
            <g transform="matrix(35.488,0,0,35.488,454.863,169)">
                <path d="M0.156,-0.723L0.394,-0.125L0.339,-0.136L0.565,-0.723L0.678,-0.723L0.359,0.033L0.041,-0.723L0.156,-0.723Z" style="fill-rule:nonzero;"/>
            </g>
            <g transform="matrix(35.488,0,0,35.488,505.576,169)">
                <path d="M0.032,0L0.348,-0.753L0.354,-0.753L0.669,0L0.558,0L0.322,-0.601L0.391,-0.646L0.127,0L0.032,0ZM0.217,-0.274L0.486,-0.274L0.518,-0.19L0.189,-0.19L0.217,-0.274Z" style="fill-rule:nonzero;"/>
            </g>
            <g transform="matrix(35.488,0,0,35.488,558.879,169)">
                <path d="M0.296,-0.723C0.333,-0.723 0.367,-0.718 0.398,-0.709C0.429,-0.699 0.456,-0.685 0.479,-0.666C0.502,-0.647 0.52,-0.623 0.533,-0.596C0.546,-0.568 0.552,-0.536 0.552,-0.499C0.552,-0.47 0.548,-0.442 0.54,-0.415C0.531,-0.388 0.517,-0.363 0.498,-0.341C0.479,-0.318 0.454,-0.3 0.423,-0.287C0.392,-0.273 0.353,-0.266 0.308,-0.266L0.201,-0.266L0.201,0L0.104,0L0.104,-0.723L0.296,-0.723ZM0.306,-0.359C0.335,-0.359 0.359,-0.363 0.378,-0.372C0.397,-0.381 0.411,-0.392 0.422,-0.406C0.433,-0.419 0.44,-0.434 0.445,-0.45C0.45,-0.466 0.452,-0.481 0.452,-0.495C0.452,-0.51 0.45,-0.525 0.445,-0.541C0.44,-0.556 0.432,-0.571 0.421,-0.584C0.409,-0.597 0.395,-0.608 0.378,-0.617C0.36,-0.626 0.338,-0.63 0.313,-0.63L0.201,-0.63L0.201,-0.359L0.306,-0.359ZM0.425,-0.304L0.614,0L0.502,0L0.31,-0.301L0.425,-0.304Z" style="fill-rule:nonzero;"/>
            </g>
            <g transform="matrix(35.488,0,0,35.488,610.691,169)">
                <path d="M0.104,0L0.104,-0.723L0.301,-0.723C0.372,-0.723 0.433,-0.712 0.484,-0.69C0.534,-0.668 0.574,-0.639 0.605,-0.603C0.636,-0.567 0.658,-0.527 0.673,-0.484C0.687,-0.44 0.694,-0.396 0.694,-0.353C0.694,-0.298 0.685,-0.249 0.666,-0.206C0.647,-0.163 0.62,-0.126 0.587,-0.095C0.554,-0.064 0.516,-0.041 0.473,-0.025C0.43,-0.008 0.384,0 0.336,0L0.104,0ZM0.201,-0.093L0.317,-0.093C0.357,-0.093 0.394,-0.099 0.428,-0.111C0.461,-0.123 0.491,-0.14 0.516,-0.163C0.541,-0.186 0.56,-0.214 0.574,-0.247C0.588,-0.28 0.595,-0.317 0.595,-0.359C0.595,-0.404 0.588,-0.443 0.573,-0.477C0.558,-0.51 0.538,-0.538 0.513,-0.561C0.488,-0.584 0.459,-0.601 0.427,-0.613C0.395,-0.624 0.361,-0.63 0.326,-0.63L0.201,-0.63L0.201,-0.093Z" style="fill-rule:nonzero;"/>
            </g>
        </g>
    </g>
</svg>
